<?xml version="1.0" encoding="UTF-8"?>
<!DOCTYPE svg PUBLIC "-//W3C//DTD SVG 1.1//EN" "http://www.w3.org/Graphics/SVG/1.1/DTD/svg11.dtd">
<!-- Creator: CorelDRAW 2020 (64-Bit) -->
<svg xmlns="http://www.w3.org/2000/svg" xml:space="preserve" width="24.384mm" height="20.32mm" version="1.1" style="shape-rendering:geometricPrecision; text-rendering:geometricPrecision; image-rendering:optimizeQuality; fill-rule:evenodd; clip-rule:evenodd"
viewBox="0 0 2438.4 2032"
 xmlns:xlink="http://www.w3.org/1999/xlink"
 xmlns:xodm="http://www.corel.com/coreldraw/odm/2003">
 <defs>
  <style type="text/css">
   <![CDATA[
    .fil1 {fill:none}
    .fil0 {fill:#21759B}
   ]]>
  </style>
   <clipPath id="id0">
    <path d="M2132.01 2017.07c195.35,-142.12 306.39,-556.54 306.39,-791.91 0,-673.35 -545.85,-1219.2 -1219.2,-1219.2 -673.35,0 -1219.2,545.85 -1219.2,1219.2 0,235.37 111.04,649.79 306.39,791.91 25.38,21.44 86.72,5.7 135.5,-61.37 40.72,-39.63 83.12,-119.14 108.17,-135.36 11.8,-17.78 49.53,-39.18 84.07,-41.66 35.12,-2.52 76.7,12.46 90.04,31.35l4.79 5.92c61.34,34.85 85.08,234.06 259.47,172.4 7.01,-7.77 15.68,-12.16 24.67,-19.72 45.67,-38.4 84.88,-124.19 132.72,-159.65 17.05,-17 44.09,-28.6 73.38,-30.48 29.29,1.88 56.33,13.48 73.38,30.48 47.84,35.46 87.05,121.25 132.72,159.65 8.99,7.56 17.66,11.95 24.67,19.72 174.39,61.66 198.13,-137.55 259.47,-172.4l4.79 -5.92c13.34,-18.89 54.92,-33.87 90.04,-31.35 34.54,2.48 72.27,23.88 84.07,41.66 25.05,16.22 67.45,95.73 108.17,135.36 48.78,67.07 110.12,82.81 135.5,61.37zm-912.81 -1922.39c-613.56,0 -1110.95,497.39 -1110.95,1110.95 0,246.53 80.35,474.28 216.23,658.57 16.19,-11.12 32.48,-26.08 47.67,-45.23 17.61,-15.74 35.5,-37.75 52.4,-59.6 -109.57,-156.94 -173.87,-347.82 -173.87,-553.74 0,-534.89 433.62,-968.52 968.52,-968.52 534.9,0 968.52,433.63 968.52,968.52 0,205.89 -64.29,396.73 -173.83,553.66 16.91,21.87 34.84,43.92 52.48,59.68 15.16,19.12 31.44,34.07 47.59,45.17 135.86,-184.28 216.19,-412 216.19,-658.51 0,-613.56 -497.39,-1110.95 -1110.95,-1110.95zm-475.39 544.69c9.52,0.85 19.57,-0.36 29.03,0.26 3.01,0.2 4.41,0.96 8.4,1.38 10.93,1.15 24.51,1.58 34.63,4.16 2.83,0.71 5.67,0.33 8.45,1.07 7.49,1.99 14.7,4.97 21.67,7.82l17.76 11.02c1.45,1.33 2.85,3.57 4.69,5.4 9.63,9.59 10.34,15.63 13.49,20.43 5.76,8.76 8.37,23.96 10.22,33.82l4.66 34.13c0.36,12.77 0.89,25.16 1.03,38.22 0.12,12.12 1.4,25.23 1.39,37.48l-0.02 428.15c0,25.9 0.29,51.96 -0.05,77.84 -0.3,23.98 -1.72,50.44 -3.52,74.26 -0.6,8.01 -1.42,18.42 -2.94,26.07 -0.69,3.4 -1.16,4.33 -1.65,8.38 -1.02,8.29 -6.37,20.98 -9.73,29.36 -3.71,9.18 -10.23,15.38 -16.7,22.16 -6.26,6.56 -12.41,9.61 -20.09,13.71 -1.19,0.63 -1.85,1.07 -3.41,1.51 -10.22,2.91 -20.79,5.96 -31.49,7.69l-63.54 4.06c-3.75,0.75 -2.34,3.57 -2.29,8.14 0.12,12.01 -0.91,27.39 0.2,38.92 17.45,1.4 40.35,0.17 58.4,0.17l864.22 0c2.4,0 4.81,-0.03 7.21,0l5.67 -0.17c2.5,-0.53 2.16,-1.17 2.38,-3.57l1.54 -25.27c0.16,-9.8 1.03,-19.11 1.58,-28.8 1.11,-19.33 1.7,-38.46 3.37,-57.62 0.77,-8.85 0.93,-19.48 1.78,-28.33 1.39,-14.47 5.17,-74.77 4.73,-87.12l-47.01 0.03c-0.83,1.74 -2.7,7.88 -3.08,9.7 -0.86,4.04 -0.86,2.45 -1.74,4.73 -0.72,1.87 -0.4,4.08 -0.81,6.46l-11.05 42.48c-1.12,3.58 -2.08,5.89 -3.42,10.11 -5.2,16.44 -13.23,30.47 -23.71,43.49 -4.28,5.33 -8.99,8.41 -13.99,12.65 -5.73,4.86 -11.61,6.74 -17.34,10.05 -4.02,2.33 -9.41,3.71 -13.82,5.59 -4.3,1.84 -11.74,2.81 -16.5,3.86l-11.28 2.23c-8.17,0.95 -14.33,3.16 -23.1,3.58 -8.39,0.41 -17.78,1.4 -25.92,1.58 -70.89,1.54 -142.98,0.68 -214.09,0.69 -24.41,0 -52.33,-0.03 -75.78,-4.23 -2.58,-0.46 -2.94,-0.92 -5.08,-1.31 -2.23,-0.42 -4.57,-0.25 -6.76,-0.7 -5.79,-1.18 -24.1,-8.39 -28.79,-11.43 -5.77,-3.73 -18.06,-12.74 -21.33,-18.24l-5.58 -8.2c-0.09,-0.14 -0.21,-0.3 -0.3,-0.44 -0.08,-0.12 -0.21,-0.29 -0.3,-0.41l-3.94 -8.16c-1.33,-3.78 -2.51,-6.11 -3.8,-9.99 -2.23,-6.69 -4.33,-13.11 -5.75,-20.87l-2.3 -11.19c-0.35,-4.57 -0.22,-9.01 -1.01,-13.01 -1.31,-6.63 -0.63,-17.52 -2.47,-24.04 -1.55,-5.47 -0.72,-19.42 -0.75,-26.4 -0.62,-143.15 -0.14,-286.41 -0.14,-429.58 0,-44.7 -0.4,-89.41 0.19,-134.1 0.12,-8.44 1.84,-15.49 2.01,-24.47 0.11,-6.37 0.65,-6.29 1.47,-11.51 0.7,-4.33 -0.17,-8.98 1.12,-12.48 1.23,-3.29 0.98,-8.39 2.29,-11.34l1.4 -5.23c0.96,-3.62 2.82,-6.28 3.61,-9.98 1.2,-5.62 3.12,-9.05 5.91,-14.15 2.7,-4.89 6.83,-12.06 10.45,-16.17 4.21,-4.83 15.35,-15.86 22.46,-17.86 5.46,-1.53 8.71,-4.8 13.86,-6.18 9.01,-2.41 18.64,-5.66 27.93,-6.1l12.25 -1.5c8.31,-0.61 17.36,-1.05 25.24,-1.61 8.76,-0.63 18.14,0.34 26.95,-0.23 1.36,-7.51 0.37,-26.2 0.37,-34.87 0,-17.07 3.19,-12.93 -22.25,-12.93l-459.16 0c-11.43,0 -24.68,-0.61 -35.91,0.13l-0.32 46.82z"/>
   </clipPath>
 </defs>
 <g id="Layer_x0020_1">
  <metadata id="CorelCorpID_0Corel-Layer"/>
  <path class="fil0" d="M2132.01 2017.07c195.35,-142.12 306.39,-556.54 306.39,-791.91 0,-673.35 -545.85,-1219.2 -1219.2,-1219.2 -673.35,0 -1219.2,545.85 -1219.2,1219.2 0,235.37 111.04,649.79 306.39,791.91 25.38,21.44 86.72,5.7 135.5,-61.37 40.72,-39.63 83.12,-119.14 108.17,-135.36 11.8,-17.78 49.53,-39.18 84.07,-41.66 35.12,-2.52 76.7,12.46 90.04,31.35l4.79 5.92c61.34,34.85 85.08,234.06 259.47,172.4 7.01,-7.77 15.68,-12.16 24.67,-19.72 45.67,-38.4 84.88,-124.19 132.72,-159.65 17.05,-17 44.09,-28.6 73.38,-30.48 29.29,1.88 56.33,13.48 73.38,30.48 47.84,35.46 87.05,121.25 132.72,159.65 8.99,7.56 17.66,11.95 24.67,19.72 174.39,61.66 198.13,-137.55 259.47,-172.4l4.79 -5.92c13.34,-18.89 54.92,-33.87 90.04,-31.35 34.54,2.48 72.27,23.88 84.07,41.66 25.05,16.22 67.45,95.73 108.17,135.36 48.78,67.07 110.12,82.81 135.5,61.37zm-912.81 -1922.39c-613.56,0 -1110.95,497.39 -1110.95,1110.95 0,246.53 80.35,474.28 216.23,658.57 16.19,-11.12 32.48,-26.08 47.67,-45.23 17.61,-15.74 35.5,-37.75 52.4,-59.6 -109.57,-156.94 -173.87,-347.82 -173.87,-553.74 0,-534.89 433.62,-968.52 968.52,-968.52 534.9,0 968.52,433.63 968.52,968.52 0,205.89 -64.29,396.73 -173.83,553.66 16.91,21.87 34.84,43.92 52.48,59.68 15.16,19.12 31.44,34.07 47.59,45.17 135.86,-184.28 216.19,-412 216.19,-658.51 0,-613.56 -497.39,-1110.95 -1110.95,-1110.95zm-475.39 544.69c9.52,0.85 19.57,-0.36 29.03,0.26 3.01,0.2 4.41,0.96 8.4,1.38 10.93,1.15 24.51,1.58 34.63,4.16 2.83,0.71 5.67,0.33 8.45,1.07 7.49,1.99 14.7,4.97 21.67,7.82l17.76 11.02c1.45,1.33 2.85,3.57 4.69,5.4 9.63,9.59 10.34,15.63 13.49,20.43 5.76,8.76 8.37,23.96 10.22,33.82l4.66 34.13c0.36,12.77 0.89,25.16 1.03,38.22 0.12,12.12 1.4,25.23 1.39,37.48l-0.02 428.15c0,25.9 0.29,51.96 -0.05,77.84 -0.3,23.98 -1.72,50.44 -3.52,74.26 -0.6,8.01 -1.42,18.42 -2.94,26.07 -0.69,3.4 -1.16,4.33 -1.65,8.38 -1.02,8.29 -6.37,20.98 -9.73,29.36 -3.71,9.18 -10.23,15.38 -16.7,22.16 -6.26,6.56 -12.41,9.61 -20.09,13.71 -1.19,0.63 -1.85,1.07 -3.41,1.51 -10.22,2.91 -20.79,5.96 -31.49,7.69l-63.54 4.06c-3.75,0.75 -2.34,3.57 -2.29,8.14 0.12,12.01 -0.91,27.39 0.2,38.92 17.45,1.4 40.35,0.17 58.4,0.17l864.22 0c2.4,0 4.81,-0.03 7.21,0l5.67 -0.17c2.5,-0.53 2.16,-1.17 2.38,-3.57l1.54 -25.27c0.16,-9.8 1.03,-19.11 1.58,-28.8 1.11,-19.33 1.7,-38.46 3.37,-57.62 0.77,-8.85 0.93,-19.48 1.78,-28.33 1.39,-14.47 5.17,-74.77 4.73,-87.12l-47.01 0.03c-0.83,1.74 -2.7,7.88 -3.08,9.7 -0.86,4.04 -0.86,2.45 -1.74,4.73 -0.72,1.87 -0.4,4.08 -0.81,6.46l-11.05 42.48c-1.12,3.58 -2.08,5.89 -3.42,10.11 -5.2,16.44 -13.23,30.47 -23.71,43.49 -4.28,5.33 -8.99,8.41 -13.99,12.65 -5.73,4.86 -11.61,6.74 -17.34,10.05 -4.02,2.33 -9.41,3.71 -13.82,5.59 -4.3,1.84 -11.74,2.81 -16.5,3.86l-11.28 2.23c-8.17,0.95 -14.33,3.16 -23.1,3.58 -8.39,0.41 -17.78,1.4 -25.92,1.58 -70.89,1.54 -142.98,0.68 -214.09,0.69 -24.41,0 -52.33,-0.03 -75.78,-4.23 -2.58,-0.46 -2.94,-0.92 -5.08,-1.31 -2.23,-0.42 -4.57,-0.25 -6.76,-0.7 -5.79,-1.18 -24.1,-8.39 -28.79,-11.43 -5.77,-3.73 -18.06,-12.74 -21.33,-18.24l-5.58 -8.2c-0.09,-0.14 -0.21,-0.3 -0.3,-0.44 -0.08,-0.12 -0.21,-0.29 -0.3,-0.41l-3.94 -8.16c-1.33,-3.78 -2.51,-6.11 -3.8,-9.99 -2.23,-6.69 -4.33,-13.11 -5.75,-20.87l-2.3 -11.19c-0.35,-4.57 -0.22,-9.01 -1.01,-13.01 -1.31,-6.63 -0.63,-17.52 -2.47,-24.04 -1.55,-5.47 -0.72,-19.42 -0.75,-26.4 -0.62,-143.15 -0.14,-286.41 -0.14,-429.58 0,-44.7 -0.4,-89.41 0.19,-134.1 0.12,-8.44 1.84,-15.49 2.01,-24.47 0.11,-6.37 0.65,-6.29 1.47,-11.51 0.7,-4.33 -0.17,-8.98 1.12,-12.48 1.23,-3.29 0.98,-8.39 2.29,-11.34l1.4 -5.23c0.96,-3.62 2.82,-6.28 3.61,-9.98 1.2,-5.62 3.12,-9.05 5.91,-14.15 2.7,-4.89 6.83,-12.06 10.45,-16.17 4.21,-4.83 15.35,-15.86 22.46,-17.86 5.46,-1.53 8.71,-4.8 13.86,-6.18 9.01,-2.41 18.64,-5.66 27.93,-6.1l12.25 -1.5c8.31,-0.61 17.36,-1.05 25.24,-1.61 8.76,-0.63 18.14,0.34 26.95,-0.23 1.36,-7.51 0.37,-26.2 0.37,-34.87 0,-17.07 3.19,-12.93 -22.25,-12.93l-459.16 0c-11.43,0 -24.68,-0.61 -35.91,0.13l-0.32 46.82z"/>
  <g style="clip-path:url(#id0)">
   <g id="_1834018904720">
    <path id="1" class="fil0" d="M1219.2 237.11c-534.9,0 -968.52,433.63 -968.52,968.52 0,534.9 433.62,968.53 968.52,968.53 534.9,0 968.52,-433.63 968.52,-968.53 0,-534.89 -433.62,-968.52 -968.52,-968.52zm-475.39 402.26c9.52,0.85 19.57,-0.36 29.03,0.26 3.01,0.2 4.41,0.96 8.4,1.38 10.93,1.15 24.51,1.58 34.63,4.16 2.83,0.71 5.67,0.33 8.45,1.07 7.49,1.99 14.7,4.97 21.67,7.82l17.76 11.02c1.45,1.33 2.85,3.57 4.69,5.4 9.63,9.59 10.34,15.63 13.49,20.43 5.76,8.76 8.37,23.96 10.22,33.82l4.66 34.13c0.36,12.77 0.89,25.16 1.03,38.22 0.12,12.12 1.4,25.23 1.39,37.48l-0.02 428.15c0,25.9 0.29,51.96 -0.05,77.84 -0.3,23.98 -1.72,50.44 -3.52,74.26 -0.6,8.01 -1.42,18.42 -2.94,26.07 -0.69,3.4 -1.16,4.33 -1.65,8.38 -1.02,8.29 -6.37,20.98 -9.73,29.36 -3.71,9.18 -10.23,15.38 -16.7,22.16 -6.26,6.56 -12.41,9.61 -20.09,13.71 -1.19,0.63 -1.85,1.07 -3.41,1.51 -10.22,2.91 -20.79,5.96 -31.49,7.69l-63.54 4.06c-3.75,0.75 -2.34,3.57 -2.29,8.14 0.12,12.01 -0.91,27.39 0.2,38.92 17.45,1.4 40.35,0.17 58.4,0.17l864.22 0c2.4,0 4.81,-0.03 7.21,0l5.67 -0.17c2.5,-0.53 2.16,-1.17 2.38,-3.57l1.54 -25.27c0.16,-9.8 1.03,-19.11 1.58,-28.8 1.11,-19.33 1.7,-38.46 3.37,-57.62 0.77,-8.85 0.93,-19.48 1.78,-28.33 1.39,-14.47 5.17,-74.77 4.73,-87.12l-47.01 0.03c-0.83,1.74 -2.7,7.88 -3.08,9.7 -0.86,4.04 -0.86,2.45 -1.74,4.73 -0.72,1.87 -0.4,4.08 -0.81,6.46l-11.05 42.48c-1.12,3.58 -2.08,5.89 -3.42,10.11 -5.2,16.44 -13.23,30.47 -23.71,43.49 -4.28,5.33 -8.99,8.41 -13.99,12.65 -5.73,4.86 -11.61,6.74 -17.34,10.05 -4.02,2.33 -9.41,3.71 -13.82,5.59 -4.3,1.84 -11.74,2.81 -16.5,3.86l-11.28 2.23c-8.17,0.95 -14.33,3.16 -23.1,3.58 -8.39,0.41 -17.78,1.4 -25.92,1.58 -70.89,1.54 -142.98,0.68 -214.09,0.69 -24.41,0 -52.33,-0.03 -75.78,-4.23 -2.58,-0.46 -2.94,-0.92 -5.08,-1.31 -2.23,-0.42 -4.57,-0.25 -6.76,-0.7 -5.79,-1.18 -24.1,-8.39 -28.79,-11.43 -5.77,-3.73 -18.06,-12.74 -21.33,-18.24l-5.58 -8.2c-0.09,-0.14 -0.21,-0.3 -0.3,-0.44 -0.08,-0.12 -0.21,-0.29 -0.3,-0.41l-3.94 -8.16c-1.33,-3.78 -2.51,-6.11 -3.8,-9.99 -2.23,-6.69 -4.33,-13.11 -5.75,-20.87l-2.3 -11.19c-0.35,-4.57 -0.22,-9.01 -1.01,-13.01 -1.31,-6.63 -0.63,-17.52 -2.47,-24.04 -1.55,-5.47 -0.72,-19.42 -0.75,-26.4 -0.62,-143.15 -0.14,-286.41 -0.14,-429.58 0,-44.7 -0.4,-89.41 0.19,-134.1 0.12,-8.44 1.84,-15.49 2.01,-24.47 0.11,-6.37 0.65,-6.29 1.47,-11.51 0.7,-4.33 -0.17,-8.98 1.12,-12.48 1.23,-3.29 0.98,-8.39 2.29,-11.34l1.4 -5.23c0.96,-3.62 2.82,-6.28 3.61,-9.98 1.2,-5.62 3.12,-9.05 5.91,-14.15 2.7,-4.89 6.83,-12.06 10.45,-16.17 4.21,-4.83 15.35,-15.86 22.46,-17.86 5.46,-1.53 8.71,-4.8 13.86,-6.18 9.01,-2.41 18.64,-5.66 27.93,-6.1l12.25 -1.5c8.31,-0.61 17.36,-1.05 25.24,-1.61 8.76,-0.63 18.14,0.34 26.95,-0.23 1.36,-7.51 0.37,-26.2 0.37,-34.87 0,-17.07 3.19,-12.93 -22.25,-12.93l-459.16 0c-11.43,0 -24.68,-0.61 -35.91,0.13l-0.32 46.82z"/>
   </g>
  </g>
  <path class="fil1" d="M2132.01 2017.07c195.35,-142.12 306.39,-556.54 306.39,-791.91 0,-673.35 -545.85,-1219.2 -1219.2,-1219.2 -673.35,0 -1219.2,545.85 -1219.2,1219.2 0,235.37 111.04,649.79 306.39,791.91 25.38,21.44 86.72,5.7 135.5,-61.37 40.72,-39.63 83.12,-119.14 108.17,-135.36 11.8,-17.78 49.53,-39.18 84.07,-41.66 35.12,-2.52 76.7,12.46 90.04,31.35l4.79 5.92c61.34,34.85 85.08,234.06 259.47,172.4 7.01,-7.77 15.68,-12.16 24.67,-19.72 45.67,-38.4 84.88,-124.19 132.72,-159.65 17.05,-17 44.09,-28.6 73.38,-30.48 29.29,1.88 56.33,13.48 73.38,30.48 47.84,35.46 87.05,121.25 132.72,159.65 8.99,7.56 17.66,11.95 24.67,19.72 174.39,61.66 198.13,-137.55 259.47,-172.4l4.79 -5.92c13.34,-18.89 54.92,-33.87 90.04,-31.35 34.54,2.48 72.27,23.88 84.07,41.66 25.05,16.22 67.45,95.73 108.17,135.36 48.78,67.07 110.12,82.81 135.5,61.37zm-912.81 -1922.39c-613.56,0 -1110.95,497.39 -1110.95,1110.95 0,246.53 80.35,474.28 216.23,658.57 16.19,-11.12 32.48,-26.08 47.67,-45.23 17.61,-15.74 35.5,-37.75 52.4,-59.6 -109.57,-156.94 -173.87,-347.82 -173.87,-553.74 0,-534.89 433.62,-968.52 968.52,-968.52 534.9,0 968.52,433.63 968.52,968.52 0,205.89 -64.29,396.73 -173.83,553.66 16.91,21.87 34.84,43.92 52.48,59.68 15.16,19.12 31.44,34.07 47.59,45.17 135.86,-184.28 216.19,-412 216.19,-658.51 0,-613.56 -497.39,-1110.95 -1110.95,-1110.95zm-475.39 544.69c9.52,0.85 19.57,-0.36 29.03,0.26 3.01,0.2 4.41,0.96 8.4,1.38 10.93,1.15 24.51,1.58 34.63,4.16 2.83,0.71 5.67,0.33 8.45,1.07 7.49,1.99 14.7,4.97 21.67,7.82l17.76 11.02c1.45,1.33 2.85,3.57 4.69,5.4 9.63,9.59 10.34,15.63 13.49,20.43 5.76,8.76 8.37,23.96 10.22,33.82l4.66 34.13c0.36,12.77 0.89,25.16 1.03,38.22 0.12,12.12 1.4,25.23 1.39,37.48l-0.02 428.15c0,25.9 0.29,51.96 -0.05,77.84 -0.3,23.98 -1.72,50.44 -3.52,74.26 -0.6,8.01 -1.42,18.42 -2.94,26.07 -0.69,3.4 -1.16,4.33 -1.65,8.38 -1.02,8.29 -6.37,20.98 -9.73,29.36 -3.71,9.18 -10.23,15.38 -16.7,22.16 -6.26,6.56 -12.41,9.61 -20.09,13.71 -1.19,0.63 -1.85,1.07 -3.41,1.51 -10.22,2.91 -20.79,5.96 -31.49,7.69l-63.54 4.06c-3.75,0.75 -2.34,3.57 -2.29,8.14 0.12,12.01 -0.91,27.39 0.2,38.92 17.45,1.4 40.35,0.17 58.4,0.17l864.22 0c2.4,0 4.81,-0.03 7.21,0l5.67 -0.17c2.5,-0.53 2.16,-1.17 2.38,-3.57l1.54 -25.27c0.16,-9.8 1.03,-19.11 1.58,-28.8 1.11,-19.33 1.7,-38.46 3.37,-57.62 0.77,-8.85 0.93,-19.48 1.78,-28.33 1.39,-14.47 5.17,-74.77 4.73,-87.12l-47.01 0.03c-0.83,1.74 -2.7,7.88 -3.08,9.7 -0.86,4.04 -0.86,2.45 -1.74,4.73 -0.72,1.87 -0.4,4.08 -0.81,6.46l-11.05 42.48c-1.12,3.58 -2.08,5.89 -3.42,10.11 -5.2,16.44 -13.23,30.47 -23.71,43.49 -4.28,5.33 -8.99,8.41 -13.99,12.65 -5.73,4.86 -11.61,6.74 -17.34,10.05 -4.02,2.33 -9.41,3.71 -13.82,5.59 -4.3,1.84 -11.74,2.81 -16.5,3.86l-11.28 2.23c-8.17,0.95 -14.33,3.16 -23.1,3.58 -8.39,0.41 -17.78,1.4 -25.92,1.58 -70.89,1.54 -142.98,0.68 -214.09,0.69 -24.41,0 -52.33,-0.03 -75.78,-4.23 -2.58,-0.46 -2.94,-0.92 -5.08,-1.31 -2.23,-0.42 -4.57,-0.25 -6.76,-0.7 -5.79,-1.18 -24.1,-8.39 -28.79,-11.43 -5.77,-3.73 -18.06,-12.74 -21.33,-18.24l-5.58 -8.2c-0.09,-0.14 -0.21,-0.3 -0.3,-0.44 -0.08,-0.12 -0.21,-0.29 -0.3,-0.41l-3.94 -8.16c-1.33,-3.78 -2.51,-6.11 -3.8,-9.99 -2.23,-6.69 -4.33,-13.11 -5.75,-20.87l-2.3 -11.19c-0.35,-4.57 -0.22,-9.01 -1.01,-13.01 -1.31,-6.63 -0.63,-17.52 -2.47,-24.04 -1.55,-5.47 -0.72,-19.42 -0.75,-26.4 -0.62,-143.15 -0.14,-286.41 -0.14,-429.58 0,-44.7 -0.4,-89.41 0.19,-134.1 0.12,-8.44 1.84,-15.49 2.01,-24.47 0.11,-6.37 0.65,-6.29 1.47,-11.51 0.7,-4.33 -0.17,-8.98 1.12,-12.48 1.23,-3.29 0.98,-8.39 2.29,-11.34l1.4 -5.23c0.96,-3.62 2.82,-6.28 3.61,-9.98 1.2,-5.62 3.12,-9.05 5.91,-14.15 2.7,-4.89 6.83,-12.06 10.45,-16.17 4.21,-4.83 15.35,-15.86 22.46,-17.86 5.46,-1.53 8.71,-4.8 13.86,-6.18 9.01,-2.41 18.64,-5.66 27.93,-6.1l12.25 -1.5c8.31,-0.61 17.36,-1.05 25.24,-1.61 8.76,-0.63 18.14,0.34 26.95,-0.23 1.36,-7.51 0.37,-26.2 0.37,-34.87 0,-17.07 3.19,-12.93 -22.25,-12.93l-459.16 0c-11.43,0 -24.68,-0.61 -35.91,0.13l-0.32 46.82z"/>
 </g>
</svg>
